<?xml version="1.0" encoding="utf-8"?>
<svg xmlns="http://www.w3.org/2000/svg" height="169.47885" id="svg1" version="1.1" viewBox="0 0 129.22279 44.841281" width="488.40112">
  <defs id="defs1"/>
  <g id="layer1" transform="translate(-72.500923,-744.80227)">
    <path aria-label="zue" d="m 75.262405,746.51253 v 1.24966 h 22.244052 l -23.077163,40.40587 h 34.657396 v -1.24968 H 86.842641 l 23.077169,-40.40585 z m 36.740205,27.65926 c 0,8.91428 6.49826,14.82937 16.16235,14.82937 5.74845,0 11.4136,-4.16554 13.74631,-10.08063 v 4.91535 c 0,2.99919 1.16636,4.33218 3.91562,4.33218 h 6.16502 v -41.65553 h -0.41655 l -9.58078,7.74792 -0.0833,20.91108 c -1.66622,5.49852 -5.41522,8.74766 -10.33056,8.74766 -6.08171,0 -9.58077,-3.83231 -9.58077,-10.4972 v -26.90946 h -0.41655 l -9.58078,7.74792 z m 53.73557,-8.91428 c 0,-10.5805 4.99866,-17.91187 12.16342,-17.91187 5.2486,0 8.66435,3.24913 8.66435,8.24779 0,6.33164 -4.74874,9.83071 -13.32977,9.83071 h -7.498 z m 12.41334,-19.24486 c -12.8299,0 -23.24377,9.66408 -23.24377,21.49426 0,12.24672 9.99732,21.49425 23.24377,21.49425 9.91402,0 15.41255,-3.83231 20.16129,-14.07957 h -0.41655 c -4.4988,8.08118 -8.74767,11.16368 -15.07931,11.16368 -9.49745,0 -16.41228,-7.91454 -17.07877,-19.41146 h 32.32469 c 0,-12.24673 -8.08117,-20.66116 -19.91135,-20.66116 z" id="text1" style="font-size:86.9017px;font-family:Milky;-inkscape-font-specification:Milky;fill:#0c0013;fill-rule:evenodd;stroke-width:0.312416"/>
  </g>
</svg>